<svg width="302" height="98" viewBox="0 0 302 98" fill="none" xmlns="http://www.w3.org/2000/svg">
<g clip-path="url(#clip0_1_848)">
<path d="M151 90C128.392 90 110 71.6077 110 49C110 26.3923 128.392 8 151 8C173.608 8 192 26.3923 192 49C192 71.6077 173.608 90 151 90ZM151 13.9204C131.657 13.9204 115.92 29.6574 115.92 49C115.92 68.3426 131.657 84.0796 151 84.0796C170.343 84.0796 186.08 68.3426 186.08 49C186.08 29.6574 170.343 13.9204 151 13.9204Z" fill="black"/>
<path d="M141.759 35.3334L149.937 62.0261H150.241L158.419 35.3334H168.311L155.972 71.7778H144.205L131.867 35.3334H141.759Z" fill="black"/>
</g>
<defs>
<clipPath id="clip0_1_848">
<rect width="82" height="82" fill="white" transform="translate(110 8)"/>
</clipPath>
</defs>
</svg>
