<svg width="20" height="20" viewBox="0 0 20 20" fill="none" xmlns="http://www.w3.org/2000/svg">
<path fill-rule="evenodd" clip-rule="evenodd" d="M0 1C0 0.44772 0.44772 0 1 0H3C3.48884 0 3.90603 0.35341 3.98639 0.8356L4.34713 3H19C19.3214 3 19.6233 3.15452 19.8112 3.41529C19.9992 3.67606 20.0503 4.01128 19.9487 4.31623L16.9487 13.3162C16.8126 13.7246 16.4304 14 16 14H5C4.51116 14 4.09397 13.6466 4.01361 13.1644L2.15287 2H1C0.44772 2 0 1.55228 0 1ZM4.68046 5L5.84713 12H15.2792L17.6126 5H4.68046Z" fill="black"/>
<path fill-rule="evenodd" clip-rule="evenodd" d="M4 18C4 16.8954 4.89543 16 6 16C7.10457 16 8 16.8954 8 18C8 19.1046 7.10457 20 6 20C4.89543 20 4 19.1046 4 18Z" fill="black"/>
<path fill-rule="evenodd" clip-rule="evenodd" d="M13 18C13 16.8954 13.8954 16 15 16C16.1046 16 17 16.8954 17 18C17 19.1046 16.1046 20 15 20C13.8954 20 13 19.1046 13 18Z" fill="black"/>
</svg>
