<svg width="53" height="53" viewBox="0 0 53 53" fill="none" xmlns="http://www.w3.org/2000/svg">
<g clip-path="url(#clip0_1_779)" filter="url(#filter0_d_1_779)">
<path d="M26.5 45C14.0934 45 4 34.9066 4 22.5C4 10.0934 14.0934 0 26.5 0C38.9066 0 49 10.0934 49 22.5C49 34.9066 38.9066 45 26.5 45ZM26.5 3.24902C15.8852 3.24902 7.24902 11.8852 7.24902 22.5C7.24902 33.1148 15.8852 41.751 26.5 41.751C37.1148 41.751 45.751 33.1148 45.751 22.5C45.751 11.8852 37.1148 3.24902 26.5 3.24902Z" fill="black"/>
<path d="M21.4287 15L25.9167 29.6484H26.0833L30.5713 15H36L29.2288 35H22.7712L16 15H21.4287Z" fill="black"/>
</g>
<defs>
<filter id="filter0_d_1_779" x="0" y="0" width="53" height="53" filterUnits="userSpaceOnUse" color-interpolation-filters="sRGB">
<feFlood flood-opacity="0" result="BackgroundImageFix"/>
<feColorMatrix in="SourceAlpha" type="matrix" values="0 0 0 0 0 0 0 0 0 0 0 0 0 0 0 0 0 0 127 0" result="hardAlpha"/>
<feOffset dy="4"/>
<feGaussianBlur stdDeviation="2"/>
<feComposite in2="hardAlpha" operator="out"/>
<feColorMatrix type="matrix" values="0 0 0 0 0 0 0 0 0 0 0 0 0 0 0 0 0 0 0.25 0"/>
<feBlend mode="normal" in2="BackgroundImageFix" result="effect1_dropShadow_1_779"/>
<feBlend mode="normal" in="SourceGraphic" in2="effect1_dropShadow_1_779" result="shape"/>
</filter>
<clipPath id="clip0_1_779">
<rect width="45" height="45" fill="white" transform="translate(4)"/>
</clipPath>
</defs>
</svg>
